<mxfile host="app.diagrams.net" modified="2023-10-02T13:59:50.356Z" agent="Mozilla/5.0 (Windows NT 10.0; Win64; x64) AppleWebKit/537.36 (KHTML, like Gecko) Chrome/117.0.0.0 Safari/537.36" version="21.8.2" etag="Ngipmd2ubg0x1s-alsvD" type="github">
  <diagram name="Page-1" id="oG4cJNzY1boEV4x9Fv-y">
    <mxGraphModel>
      <root>
        <mxCell id="0" />
        <mxCell id="1" parent="0" />
      </root>
    </mxGraphModel>
  </diagram>
</mxfile>
